<svg width="48" height="48" viewBox="0 0 48 48" fill="none" xmlns="http://www.w3.org/2000/svg">
<path d="M24 44C35.0456 44 44 35.0456 44 24C44 12.9543 35.0456 4 24 4C12.9543 4 4 12.9543 4 24C4 35.0456 12.9543 44 24 44Z" fill="white" stroke="black" stroke-width="2" stroke-linecap="round" stroke-linejoin="round"/>
<path d="M5 25L16 29L14 36L16 42" stroke="black" stroke-linecap="round" stroke-linejoin="round"/>
<path d="M33 36L34 41C38.9073 37.9131 41.1425 35.7344 43 30V26L34 25L28 27V34L33 36Z" stroke="black" stroke-width="2" stroke-linecap="round" stroke-linejoin="round"/>
<path d="M10 17L5 21C3.89065 14.8826 10.9711 6.71367 17 6L19 10L15 16L10 17Z" fill="white" stroke="black" stroke-width="2" stroke-linecap="round" stroke-linejoin="round"/>
<path d="M38 11L37 14L30 15V21L35 19L39 20C42.7479 24.8191 44.678 27.2104 44 24" fill="white"/>
<path d="M38 11L37 14L30 15V21L35 19L39 20C42.7479 24.8191 44.678 27.2104 44 24C44.2287 20.7695 41.8865 12.6969 38 11Z" fill="white"/>
<path d="M38 11L37 14L30 15V21L35 19L39 20C42.7479 24.8191 44.678 27.2104 44 24" stroke="black" stroke-width="2" stroke-linecap="round" stroke-linejoin="round"/>
<path d="M38 11L37 14L30 15V21L35 19L39 20C42.7479 24.8191 44.678 27.2104 44 24C44.2287 20.7695 41.8865 12.6969 38 11Z" stroke="black" stroke-width="2" stroke-linecap="round" stroke-linejoin="round"/>
<path d="M5.66666 25.8333C5.66666 29.8833 8.9499 33.1667 13 33.1667C17.0501 33.1667 20.3333 29.8833 20.3333 25.8333C20.3333 21.7833 17.0501 18.5 13 18.5C8.9499 18.5 5.66666 21.7833 5.66666 25.8333ZM5.66666 25.8333V24Z" fill="white"/>
<path d="M5.66666 25.8333C5.66666 29.8833 8.9499 33.1667 13 33.1667C17.0501 33.1667 20.3333 29.8833 20.3333 25.8333C20.3333 21.7833 17.0501 18.5 13 18.5C8.9499 18.5 5.66666 21.7833 5.66666 25.8333ZM5.66666 25.8333V24" stroke="black" stroke-width="2" stroke-linecap="round" stroke-linejoin="round"/>
<path d="M42.3333 25.8333C42.3333 29.8833 39.05 33.1667 35 33.1667C30.95 33.1667 27.6667 29.8833 27.6667 25.8333C27.6667 21.7833 30.95 18.5 35 18.5C39.05 18.5 42.3333 21.7833 42.3333 25.8333ZM42.3333 25.8333V24.2183Z" fill="white"/>
<path d="M42.3333 25.8333C42.3333 29.8833 39.05 33.1667 35 33.1667C30.95 33.1667 27.6667 29.8833 27.6667 25.8333C27.6667 21.7833 30.95 18.5 35 18.5C39.05 18.5 42.3333 21.7833 42.3333 25.8333ZM42.3333 25.8333V24.2183" stroke="black" stroke-width="2" stroke-linecap="round" stroke-linejoin="round"/>
<path d="M27.6667 25.8333H20.3333" stroke="black" stroke-width="2" stroke-linecap="round" stroke-linejoin="round"/>
<path fill-rule="evenodd" clip-rule="evenodd" d="M21.0926 25.941L13.9708 33.8726L13.7816 31.4564C13.715 30.6054 12.953 29.9814 12.1056 30.0839C11.3398 30.1764 10.769 30.8345 10.7856 31.6057L10.9654 39.9686C10.9768 40.5007 11.2074 41.0038 11.6034 41.3594L14.9236 44.3405C16.6429 45.8843 19.0757 45.4807 20.3622 44.0479L25.8759 37.9073C27.3462 36.2698 25.197 34.34 23.7267 35.9775L24.4618 35.1588C25.9321 33.5213 23.7828 31.5916 22.3125 33.2291L22.8179 32.6662C24.2882 31.0287 22.1391 29.0989 20.6688 30.7364L23.2424 27.87C23.7753 27.2766 23.7255 26.3641 23.1321 25.8313C22.5386 25.2984 21.6255 25.3475 21.0926 25.941Z" fill="white" stroke="black" stroke-width="1.17124" stroke-linecap="round" stroke-linejoin="round"/>
</svg>
